# xmcd CD database file
#
# Track frame offsets:
#	150
#	46153
#	53388
#	72081
#	97906
#	129807
#	144279
#	168971
#	185528
#
# Disc length: 2730 seconds
#
# Revision: 0
# Processed by: cddbd v1.5.2PL0 Copyright (c) Steve Scherf et al.
# Submitted via: CDex 1.70beta2
#
DISCID=650aa809
DTITLE=Eagles - Logn Road Out Of Eden CD 2
DYEAR=2007
DGENRE=Country
TTITLE0=Long Road Out Of Eden
TTITLE1=I Dreamed There Was No War
TTITLE2=Somebody
TTITLE3=Frail Grasp On The Big Picture
TTITLE4=Last Good Time In Town
TTITLE5=I Love To Watch A Woman Dance
TTITLE6=Business As Usual
TTITLE7=Center Of The Universe
TTITLE8=It's Your World Now
EXTD=YEAR: 2007
EXTT0=
EXTT1=
EXTT2=
EXTT3=
EXTT4=
EXTT5=
EXTT6=
EXTT7=
EXTT8=
PLAYORDER=
